<svg xmlns="http://www.w3.org/2000/svg" viewBox="0 0 1130.23 158.15"><defs><style>.cls-1{fill:#ff5206;}</style></defs><g id="Layer_2" data-name="Layer 2"><g id="Layer_1-2" data-name="Layer 1"><path class="cls-1" d="M315.69,45.83a59.42,59.42,0,0,0-79.42,4.33,57.72,57.72,0,0,0-17.5,42.18,57.63,57.63,0,0,0,17.5,42.08,59.44,59.44,0,0,0,79.42,4.32v13.17H338V32.66H315.69ZM304.78,65.9a36.17,36.17,0,0,1,10.91,26.44,37.35,37.35,0,1,1-74.69,0A37.38,37.38,0,0,1,304.78,65.9Z"/><path class="cls-1" d="M477.52,32.66c-14.64,0-26.84,5.75-36.33,17.11-9.41-11.36-21.62-17.11-36.36-17.11A45,45,0,0,0,379.6,40V32.66H357.28V151.91H379.6V80.22A25.27,25.27,0,0,1,404.83,55a23.8,23.8,0,0,1,17.81,7.47,23.78,23.78,0,0,1,7.42,17.76v71.69h22.23V80.22A25.27,25.27,0,0,1,477.52,55a23.79,23.79,0,0,1,17.8,7.47,23.75,23.75,0,0,1,7.43,17.76v71.69h22.33V80.22A46,46,0,0,0,511.15,46.6,46,46,0,0,0,477.52,32.66Z"/><path class="cls-1" d="M602.45,32.66a57.14,57.14,0,0,0-37.34,13.17V.09H542.78V151.91h22.33V138.74a59.44,59.44,0,0,0,79.42-4.32A57.62,57.62,0,0,0,662,92.34a57.73,57.73,0,0,0-17.49-42.18A57.63,57.63,0,0,0,602.45,32.66Zm37.34,59.68a37.34,37.34,0,1,1-74.68,0,37.34,37.34,0,0,1,74.68,0Z"/><path class="cls-1" d="M739.29,32.66h-3.07a57.14,57.14,0,0,0-37.34,13.17V32.66H676.65V152h22.23V92.34A37.44,37.44,0,0,1,736.22,55h3.07Z"/><path class="cls-1" d="M835.43,45.83A59.44,59.44,0,0,0,756,50.16a57.77,57.77,0,0,0-17.49,42.18A57.65,57.65,0,0,0,756,134.42a59.45,59.45,0,0,0,79.43,4.32v13.17h22.33V32.66H835.43ZM824.52,65.9a36.17,36.17,0,0,1,10.91,26.44,37.35,37.35,0,1,1-74.69,0A37.38,37.38,0,0,1,824.52,65.9Z"/><path class="cls-1" d="M935.76,32.66a57.15,57.15,0,0,0-37.35,13.17V32.26H876.08V151.91h22.33V92.34a37.35,37.35,0,0,1,74.69,0v59.57h22.33V92.34a57.77,57.77,0,0,0-17.49-42.18A57.74,57.74,0,0,0,935.76,32.66Z"/><path class="cls-1" d="M1112.74,50.16a59.49,59.49,0,0,0-84.26,0A57.7,57.7,0,0,0,1011,92.33a57.62,57.62,0,0,0,17.49,42.09,57.64,57.64,0,0,0,42.08,17.49c22.69,0,40.22-10.51,52.15-31.25H1094.8a35.21,35.21,0,0,1-24.24,9,36.29,36.29,0,0,1-23.57-8.33,37.46,37.46,0,0,1-12-17.9h93.52l.71-2.09a5.57,5.57,0,0,0,.26-1.45,38.21,38.21,0,0,0,.71-7.58A57.7,57.7,0,0,0,1112.74,50.16Zm-77.69,31A37.31,37.31,0,0,1,1047,63.44h0A35.87,35.87,0,0,1,1070.56,55a35.5,35.5,0,0,1,23.6,8.47,36.84,36.84,0,0,1,12,17.66Z"/><path class="cls-1" d="M114.85,19.57a31.78,31.78,0,0,0-59.48,2.11c-2.45,6-2.91,12.9-1.23,20.83,5.36,25.2-2.68,40.28-25.56,50.84a48,48,0,0,1-7,2.8l-.15,0s0,.08,0,.13a31.78,31.78,0,1,0,42,32.18c.05-.7.08-1.41.08-2.13,0-.29,0-.58,0-.87,0-5.49-.82-11-.95-16.49-.54-23.5,6.66-34.11,27.35-43.48a80.16,80.16,0,0,0,10.86-5.89,32.06,32.06,0,0,0,10-8.61,31.83,31.83,0,0,0,4.06-31.46Z"/><circle class="cls-1" cx="139.21" cy="126.37" r="31.78"/></g></g></svg>